<svg width="124" height="28" viewBox="0 0 124 28" fill="none" xmlns="http://www.w3.org/2000/svg">
<path d="M10.5996 20.6844L9.37891 24.2H6.49805L11.5176 10.4402H14.916L19.916 24.2H17.0645L15.8438 20.6844H10.5996ZM13.2168 12.5594C13.1517 12.8198 13.0605 13.1323 12.9434 13.4969C12.8262 13.8615 12.7415 14.1186 12.6895 14.2684L11.2441 18.5164H15.1992L13.7148 14.1805C13.6237 13.9135 13.5391 13.6434 13.4609 13.3699C13.3828 13.0965 13.3014 12.8263 13.2168 12.5594ZM23.6719 18.9754V24.2H20.791V10.4402H27.666C29.3066 10.4402 30.5729 10.795 31.4648 11.5047C32.3568 12.2078 32.8027 13.2202 32.8027 14.5418C32.8027 15.5053 32.5293 16.3387 31.9824 17.0418C31.4355 17.7384 30.6966 18.1974 29.7656 18.4187L33.4863 24.2H30.2441L27.0508 18.9754H23.6719ZM29.9023 14.659C29.9023 14.0014 29.6908 13.5066 29.2676 13.1746C28.8444 12.8426 28.2096 12.6766 27.3633 12.6766H23.6719V16.7391H27.4414C28.2487 16.7391 28.8607 16.5568 29.2773 16.1922C29.694 15.8276 29.9023 15.3165 29.9023 14.659Z" fill="white"/>
<path d="M43.2021 22.6V24.7387H34.335V22.6H43.2021Z" fill="#40E0D0"/>
</svg>
